<svg width="154px" height="188px" viewBox="0 0 154 188" version="1.1" xmlns="http://www.w3.org/2000/svg" xmlns:xlink="http://www.w3.org/1999/xlink">
    <defs></defs>
    <g id="Page-1" stroke="none" stroke-width="1" fill="none" fill-rule="evenodd">
        <g id="Desktop" transform="translate(-358.000000, -353.000000)" fill="#FFFFFF">
            <g id="svg" transform="translate(358.000000, 353.000000)">
                <path d="M4.85714286,72 L51,82.1162791 L51,106.883721 L4.85714286,117 C4.51020408,117 4.16326531,117 3.81632653,117 C1.73469388,117 0,115.255814 0,113.162791 L0,76.1860465 C0,74.0930233 1.73469388,72.3488372 3.81632653,72.3488372 C4.16326531,72 4.51020408,72 4.85714286,72 Z" id="Shape"></path>
                <path d="M102,45.9352997 L102,70.7954329 L51,82 L51,39.9828735 C51,38.9324453 51.3469388,37.8820171 52.0408163,37.1817317 C53.0816327,36.1313035 54.4693878,35.7811608 55.8571429,36.1313035 L102,45.9352997 Z" id="Shape"></path>
                <path d="M102,142.0647 L102,117.204567 L51,106 L51,148.017127 C51,149.067555 51.3469388,150.117983 52.0408163,150.818268 C53.0816327,151.868696 54.4693878,152.218839 55.8571429,151.868696 L102,142.0647 Z" id="Shape"></path>
                <path d="M154,13.4367269 L154,31.6441484 C154,33.394862 152.612245,35.1455756 150.877551,35.4957184 L103,46 L103,3.98287345 C103,2.93244529 103.346939,1.88201713 104.040816,1.18173168 C105.081633,0.13130352 106.469388,-0.218839201 107.857143,0.13130352 L150.877551,9.58515699 C152.959184,9.58515699 154,11.3358706 154,13.4367269 Z" id="Shape"></path>
                <path d="M154,174.563273 L154,156.355852 C154,154.605138 152.612245,152.854424 150.877551,152.504282 L103,142 L103,184.017127 C103,185.067555 103.346939,186.117983 104.040816,186.818268 C105.081633,187.868696 106.469388,188.218839 107.857143,187.868696 L150.877551,178.414843 C152.959184,178.414843 154,176.664129 154,174.563273 Z" id="Shape"></path>
                <path d="M154,85.6222222 L154,103.725926 C154,105.466667 152.612245,107.207407 150.877551,107.555556 L103,118 L103,71 L150.877551,81.4444444 C152.959184,81.7925926 154,83.5333333 154,85.6222222 Z" id="Shape"></path>
            </g>
        </g>
    </g>
</svg>
